<?xml version="1.0" standalone="no"?>
<!DOCTYPE svg PUBLIC "-//W3C//DTD SVG 1.1//EN"
  "http://www.w3.org/Graphics/SVG/1.1/DTD/svg11.dtd">
<svg width="57.30398178100586mm" height="36.80882263183592mm" viewBox="-27.15199089050293 -56.154411315917955 57.30398178100586 36.80882263183592" xmlns="http://www.w3.org/2000/svg" version="1.1">
	<title>svgOutput</title>
	<desc>made with tinkercad</desc>
<path d="M 28.692401885986328 -55.121940612792955 L 28.728656768798828 -55.1067657470703 L 28.788814544677734 -55.08189392089842 L 28.822538375854492 -55.06165695190428 L 28.85838508605957 -55.04000091552733 L 28.878028869628906 -55.028129577636705 L 28.878068923950195 -55.02810668945311 L 28.908000946044922 -55.00239181518553 L 28.95697784423828 -54.960327148437486 L 28.95716667175293 -54.96016693115233 L 28.982460021972656 -54.930656433105455 L 29.023643493652344 -54.88270187377928 L 29.024686813354492 -54.881488800048814 L 29.04534339904785 -54.84776306152342 L 29.079469680786133 -54.792812347412095 L 29.083160400390625 -54.7840003967285 L 29.094646453857422 -54.756557464599595 L 29.11952018737793 -54.696979522705064 L 29.128793716430664 -54.65903854370116 L 29.143531799316406 -54.59725189208983 L 29.14383316040039 -54.59598922729491 L 29.14678382873535 -54.55678558349608 L 29.15199089050293 -54.49200057983397 L 29.15199089050293 -54.271999359130845 L 29.15199089050293 -53.2480010986328 L 29.15199089050293 -52.223999023437486 L 29.15199089050293 -51.20000076293944 L 29.15199089050293 -50.175998687744126 L 29.15199089050293 -49.15200042724608 L 29.15199089050293 -48.12799835205077 L 29.15199089050293 -47.10400009155273 L 29.15199089050293 -46.08000183105468 L 29.15199089050293 -45.05599975585937 L 29.15199089050293 -44.03200149536132 L 29.15199089050293 -43.00799942016601 L 29.15199089050293 -41.98400115966796 L 29.15199089050293 -40.95999908447265 L 29.15199089050293 -39.9360008239746 L 29.15199089050293 -38.91199874877929 L 29.15199089050293 -37.88800048828124 L 29.15199089050293 -36.86399841308593 L 29.15199089050293 -35.84000015258788 L 29.15199089050293 -34.81600189208984 L 29.15199089050293 -33.791999816894524 L 29.15199089050293 -32.76800155639648 L 29.15199089050293 -31.743999481201165 L 29.15199089050293 -30.719999313354485 L 29.15199089050293 -29.695999145507805 L 29.15199089050293 -28.67200088500976 L 29.15199089050293 -27.64800071716308 L 29.15199089050293 -26.6240005493164 L 29.15199089050293 -25.60000038146972 L 29.15199089050293 -24.57600021362304 L 29.15199089050293 -23.552000045776364 L 29.15199089050293 -22.527999877929684 L 29.15199089050293 -21.503999710083004 L 29.15199089050293 -21.007999420166012 L 29.150785446166992 -20.99200057983398 L 29.149038314819336 -20.96879386901855 L 29.14394760131836 -20.905427932739254 L 29.14383316040039 -20.90400886535644 L 29.134559631347656 -20.866067886352536 L 29.11957359313965 -20.803247451782223 L 29.11952018737793 -20.80302047729492 L 29.10434341430664 -20.76676559448242 L 29.079469680786133 -20.707185745239254 L 29.058813095092773 -20.673460006713864 L 29.024686813354492 -20.618509292602536 L 28.999391555786133 -20.589000701904293 L 28.95716667175293 -20.539833068847653 L 28.927234649658203 -20.514118194580075 L 28.887508392333984 -20.479999542236325 L 28.878620147705078 -20.47236633300781 L 28.878068923950195 -20.47189140319824 L 28.844343185424805 -20.45165634155273 L 28.788814544677734 -20.41810798645019 L 28.752559661865234 -20.402931213378903 L 28.69410514831543 -20.378763198852536 L 28.692401885986328 -20.378059387207028 L 28.672000885009766 -20.373350143432614 L 28.65403938293457 -20.369205474853512 L 28.59099006652832 -20.354166030883786 L 28.55178451538086 -20.350793838500973 L 28.48699951171875 -20.345588684082028 L 28.15999984741211 -20.345588684082028 L 27.648000717163086 -20.345588684082028 L 26.624000549316406 -20.345588684082028 L 24.576000213623047 -20.345588684082028 L 20.479999542236328 -20.345588684082028 L 16.384000778198242 -20.345588684082028 L 12.288000106811523 -20.345588684082028 L 8.192000389099121 -20.345588684082028 L 4.0960001945495605 -20.345588684082028 L 0 -20.345588684082028 L -4.0960001945495605 -20.345588684082028 L -8.192000389099121 -20.345588684082028 L -12.288000106811523 -20.345588684082028 L -16.384000778198242 -20.345588684082028 L -20.479999542236328 -20.345588684082028 L -24.576000213623047 -20.345588684082028 L -25.484235763549805 -20.345588684082028 L -25.48699951171875 -20.345588684082028 L -25.52620506286621 -20.34896087646484 L -25.59099006652832 -20.354166030883786 L -25.600000381469727 -20.35624504089355 L -25.629352569580078 -20.3630199432373 L -25.691335678100586 -20.37780380249023 L -25.692401885986328 -20.378059387207028 L -25.728656768798828 -20.393236160278317 L -25.788814544677734 -20.41810798645019 L -25.822538375854492 -20.4383430480957 L -25.878028869628906 -20.471868515014645 L -25.878068923950195 -20.47189140319824 L -25.88750648498535 -20.479999542236325 L -25.908000946044922 -20.49760818481445 L -25.95697784423828 -20.539670944213864 L -25.95716667175293 -20.539833068847653 L -25.982460021972656 -20.569343566894528 L -26.023643493652344 -20.617296218872067 L -26.024686813354492 -20.618509292602536 L -26.04534339904785 -20.652235031127926 L -26.079469680786133 -20.707185745239254 L -26.094646453857422 -20.743440628051754 L -26.11199951171875 -20.785007476806637 L -26.11952018737793 -20.80302047729492 L -26.128793716430664 -20.840961456298825 L -26.143531799316406 -20.902748107910153 L -26.14383316040039 -20.90400886535644 L -26.14678382873535 -20.943216323852536 L -26.150705337524414 -20.99200057983398 L -26.15199089050293 -21.007999420166012 L -26.15199089050293 -21.503999710083004 L -26.15199089050293 -22.527999877929684 L -26.15199089050293 -23.552000045776364 L -26.15199089050293 -24.57600021362304 L -26.15199089050293 -25.60000038146972 L -26.15199089050293 -26.6240005493164 L -26.15199089050293 -27.64800071716308 L -26.15199089050293 -28.67200088500976 L -26.15199089050293 -29.695999145507805 L -26.15199089050293 -30.719999313354485 L -26.15199089050293 -31.743999481201165 L -26.15199089050293 -32.76800155639648 L -26.15199089050293 -33.791999816894524 L -26.15199089050293 -34.81600189208984 L -26.15199089050293 -35.84000015258788 L -26.15199089050293 -36.86399841308593 L -26.15199089050293 -37.88800048828124 L -26.15199089050293 -38.91199874877929 L -26.15199089050293 -39.9360008239746 L -26.15199089050293 -40.95999908447265 L -26.15199089050293 -41.98400115966796 L -26.15199089050293 -43.00799942016601 L -26.15199089050293 -44.03200149536132 L -26.15199089050293 -45.05599975585937 L -26.15199089050293 -46.08000183105468 L -26.15199089050293 -47.10400009155273 L -26.15199089050293 -48.12799835205077 L -26.15199089050293 -49.15200042724608 L -26.15199089050293 -50.175998687744126 L -26.15199089050293 -51.20000076293944 L -26.15199089050293 -52.223999023437486 L -26.15199089050293 -53.2480010986328 L -26.15199089050293 -54.271999359130845 L -26.15199089050293 -54.49200057983397 L -26.149038314819336 -54.5312042236328 L -26.14394760131836 -54.594570159912095 L -26.14383316040039 -54.59598922729491 L -26.134559631347656 -54.633930206298814 L -26.11957359313965 -54.696750640869126 L -26.11952018737793 -54.696979522705064 L -26.11199951171875 -54.71494293212889 L -26.10434341430664 -54.733234405517564 L -26.08315086364746 -54.7840003967285 L -26.079469680786133 -54.792812347412095 L -26.058813095092773 -54.826538085937486 L -26.024686813354492 -54.881488800048814 L -25.999391555786133 -54.91099929809569 L -25.95716667175293 -54.96016693115233 L -25.927234649658203 -54.98588180541991 L -25.878068923950195 -55.02810668945311 L -25.858247756958008 -55.04000091552733 L -25.844343185424805 -55.04834365844725 L -25.788814544677734 -55.08189392089842 L -25.752559661865234 -55.09706878662108 L -25.69410514831543 -55.12123870849608 L -25.692401885986328 -55.121940612792955 L -25.65403938293457 -55.13079452514647 L -25.600000381469727 -55.14368438720702 L -25.59099006652832 -55.145832061767564 L -25.55178451538086 -55.149204254150376 L -25.48699951171875 -55.154411315917955 L -25.08799934387207 -55.154411315917955 L -24.576000213623047 -55.154411315917955 L -22.527999877929688 -55.154411315917955 L -20.479999542236328 -55.154411315917955 L -18.43199920654297 -55.154411315917955 L -16.384000778198242 -55.154411315917955 L -14.336000442504883 -55.154411315917955 L -12.288000106811523 -55.154411315917955 L -10.239999771118164 -55.154411315917955 L -8.192000389099121 -55.154411315917955 L -6.144000053405762 -55.154411315917955 L -4.0960001945495605 -55.154411315917955 L -2.0480000972747803 -55.154411315917955 L 0 -55.154411315917955 L 2.0480000972747803 -55.154411315917955 L 4.0960001945495605 -55.154411315917955 L 6.144000053405762 -55.154411315917955 L 8.192000389099121 -55.154411315917955 L 10.239999771118164 -55.154411315917955 L 12.288000106811523 -55.154411315917955 L 14.336000442504883 -55.154411315917955 L 16.384000778198242 -55.154411315917955 L 18.43199920654297 -55.154411315917955 L 20.479999542236328 -55.154411315917955 L 22.527999877929688 -55.154411315917955 L 24.576000213623047 -55.154411315917955 L 26.624000549316406 -55.154411315917955 L 27.648000717163086 -55.154411315917955 L 28.15999984741211 -55.154411315917955 L 28.484235763549805 -55.154411315917955 L 28.48699951171875 -55.154411315917955 L 28.52620506286621 -55.15103912353514 L 28.59099006652832 -55.145832061767564 L 28.629352569580078 -55.136981964111314 L 28.672000885009766 -55.12680816650389 L 28.691335678100586 -55.12219619750975 L 28.692401885986328 -55.121940612792955 z" fill="none" stroke="rgb(255,0,0)" stroke-width="0.001mm" />
</svg>